<svg version="1.1" id="Layer_1" xmlns="http://www.w3.org/2000/svg" xmlns:xlink="http://www.w3.org/1999/xlink" x="0px" y="0px"
	 width="100%" viewBox="0 0 183 161" enable-background="new 0 0 183 161" xml:space="preserve">
<path fill="#002B55" opacity="1.000000" stroke="none" 
	d="
M80.000000,1.000000 
	C94.687561,1.000000 109.375122,1.000000 124.702347,1.300782 
	C126.860535,2.534601 128.290863,3.674462 129.912399,4.365857 
	C138.131577,7.870346 146.503677,11.032566 154.624878,14.746208 
	C164.117020,19.086742 173.064911,24.841829 184.000000,25.000000 
	C184.000000,27.700014 184.000000,30.400026 183.594711,33.497105 
	C173.603760,33.195698 165.163742,29.203468 157.515045,23.878317 
	C144.532227,14.839479 130.221939,9.209764 114.808762,6.628141 
	C103.521896,4.737654 92.347214,5.848853 81.512276,10.329618 
	C58.732536,19.750128 43.435844,38.100471 26.699986,54.916023 
	C19.499266,62.151035 10.895913,67.992149 2.895900,74.424370 
	C2.418365,74.808319 1.638943,74.816803 1.000000,75.000000 
	C1.000000,68.645599 1.000000,62.291203 1.351814,55.412304 
	C3.007062,54.203484 4.480482,53.723385 5.586927,52.802406 
	C14.123705,45.696583 23.012085,38.941906 30.973267,31.233351 
	C41.618088,20.926317 54.186428,14.260662 67.667580,8.707975 
	C72.086914,6.887717 75.906273,3.610788 80.000000,1.000000 
z"/>
</svg>