<svg version="1.1" id="Layer_1" xmlns="http://www.w3.org/2000/svg" xmlns:xlink="http://www.w3.org/1999/xlink" x="0px" y="0px"
	 width="100%" viewBox="0 0 256 256" enable-background="new 0 0 256 256" xml:space="preserve">
<path fill="#07409D" opacity="1.000000" stroke="none" 
	d="
M182.097168,109.025017 
	C182.402161,122.827629 172.016525,134.233566 158.329620,134.992645 
	C154.202347,135.221542 150.057434,135.132553 145.458511,134.837372 
	C144.994324,134.314316 144.992249,134.143082 145.152756,133.609909 
	C145.890640,129.522141 146.465942,125.796318 147.302734,121.863022 
	C149.059143,119.159668 150.554092,116.663788 152.404266,114.066559 
	C155.309174,112.972572 157.793213,111.724174 160.424301,111.048332 
	C164.202728,110.077805 168.088333,109.524475 172.166458,109.107758 
	C175.635544,109.289978 178.866364,109.157501 182.097168,109.025017 
z"/>
<path fill="#05C0FA" opacity="1.000000" stroke="none" 
	d="
M98.956459,69.852409 
	C106.961960,52.244411 126.285316,45.776714 145.793152,54.893658 
	C144.987335,56.053890 144.091690,56.608078 143.131210,57.005627 
	C139.746964,58.406380 136.340454,59.753387 132.702225,61.080570 
	C132.462051,61.040352 131.980942,60.960976 131.908218,60.803394 
	C131.579559,60.716831 131.323608,60.787849 130.743378,60.770271 
	C128.983551,61.126850 127.548035,61.572018 125.730324,62.047005 
	C123.463425,62.700459 121.442345,63.069241 119.717758,63.992088 
	C112.478554,67.865891 104.006157,70.619164 98.523979,76.253044 
	C93.243362,81.679779 87.120033,84.987389 81.098381,88.847290 
	C80.366302,89.316559 78.938942,88.701141 77.833809,88.588425 
	C80.723183,82.197433 86.120415,78.743202 92.774139,76.355721 
	C93.489304,76.361008 93.745064,76.232948 94.000832,76.104881 
	C95.080208,75.266235 96.159584,74.427582 97.788971,73.159554 
	C98.544807,71.770920 98.750633,70.811668 98.956459,69.852409 
z"/>
<path fill="#0592F0" opacity="1.000000" stroke="none" 
	d="
M73.155235,102.030785 
	C73.514053,100.029572 73.872871,98.028366 74.560486,96.130966 
	C75.191673,97.077736 75.494087,97.920677 75.904800,99.065483 
	C84.856888,92.732101 93.538368,86.785095 102.003044,80.544037 
	C109.693703,74.873665 117.148781,68.883888 126.949295,67.372269 
	C127.366096,69.092812 127.715546,70.459694 127.869934,72.127724 
	C109.956474,83.720009 92.238083,95.011139 74.530952,106.295097 
	C74.139656,105.082199 73.647446,103.556488 73.155235,102.030785 
z"/>
</svg>