<svg version="1.1" id="Layer_1" xmlns="http://www.w3.org/2000/svg" xmlns:xlink="http://www.w3.org/1999/xlink" x="0px" y="0px"
	 width="100%" viewBox="0 0 256 256" enable-background="new 0 0 256 256" xml:space="preserve">
<path fill="#FEFFFF" opacity="1.000000" stroke="none" 
	d="
M256.000000,257.000000 
	C171.072968,257.000000 86.145935,257.000000 1.000000,257.000000 
	C1.000000,172.312561 1.000000,87.624939 1.221948,2.364484 
	C1.715763,1.588539 1.901131,1.324654 2.000000,1.000000 
	C86.927040,1.000000 171.854080,1.000000 257.000000,1.000000 
	C257.000000,85.687439 257.000000,170.375061 256.770813,255.627579 
	C256.248047,256.385864 256.067505,256.655029 256.000000,257.000000 
M171.930878,173.057877 
	C171.930878,173.057877 171.818497,173.061218 171.866058,173.686172 
	C172.217438,174.157852 172.568817,174.629547 172.980743,174.995667 
	C172.980743,174.995667 172.900223,175.087372 173.163895,175.756714 
	C176.480469,179.431046 180.542191,179.813812 185.619720,178.283707 
	C191.242966,174.383087 192.345047,171.871292 191.007767,165.521713 
	C190.936584,165.358551 190.865387,165.195404 190.654312,164.373840 
	C186.563950,159.124390 182.164154,157.538284 177.032654,159.463257 
	C172.124237,161.304550 170.515274,164.785690 171.198334,172.522034 
	C171.322525,172.859680 171.558441,173.074844 171.930878,173.057877 
M113.503998,159.158585 
	C113.140961,159.335373 113.036888,159.610229 113.017044,160.878784 
	C113.059998,163.916763 113.102951,166.954758 112.996971,170.719681 
	C111.323853,172.617645 109.650734,174.515594 107.977615,176.413559 
	C107.230339,176.207993 106.483070,176.002426 105.735794,175.796860 
	C105.107040,170.385834 104.478294,164.974808 103.818329,159.295166 
	C102.682396,159.295166 101.268791,159.295166 99.357567,159.295166 
	C99.357567,163.953049 98.803345,168.512848 99.584290,172.831207 
	C99.993355,175.093246 102.505608,178.333588 104.488434,178.672485 
	C108.751511,179.401138 113.286880,178.536789 118.384834,178.292191 
	C117.914513,171.906631 117.450287,165.603668 116.251892,159.099426 
	C115.495697,159.148575 114.739510,159.197708 113.503998,159.158585 
M167.308258,157.471970 
	C167.228790,156.312088 167.149323,155.152206 167.218643,153.495010 
	C167.173355,153.328003 167.128067,153.161011 167.098083,152.329147 
	C166.726624,152.166809 166.355179,152.004456 165.144775,151.665543 
	C161.211533,151.181412 162.034714,153.821548 162.093033,156.925522 
	C161.998230,164.236343 159.676407,165.497284 150.928864,163.430405 
	C150.264145,159.419418 149.635468,155.625854 148.244827,151.671570 
	C147.493927,151.802292 146.743011,151.933029 145.322128,152.562897 
	C145.322128,161.289810 145.322128,170.016724 145.322128,178.806183 
	C147.222092,178.806183 148.522186,178.806183 150.241470,178.806183 
	C150.241470,174.895096 150.241470,171.144791 150.241470,167.337555 
	C154.392593,167.337555 158.115875,167.337555 162.160614,167.337555 
	C162.160614,171.266556 162.160614,174.881287 162.160614,178.670532 
	C164.025742,178.670532 165.554810,178.670532 167.062912,178.670532 
	C167.062912,173.230301 167.062912,168.105118 167.251083,162.165649 
	C167.189468,160.780090 167.127838,159.394547 167.308258,157.471970 
M47.822182,162.572159 
	C48.286858,161.399582 48.751537,160.226990 49.852573,158.744553 
	C52.793976,155.535522 56.500710,155.859436 60.340523,156.264084 
	C61.489597,156.385178 62.739548,155.549011 63.943279,155.151398 
	C63.016945,154.044952 62.285240,152.286774 61.131390,151.942184 
	C55.406540,150.232574 50.115780,150.993317 45.327877,156.156647 
	C42.713409,160.096985 40.814499,164.168350 42.970467,169.712555 
	C46.130463,177.074234 52.394512,180.525192 59.973286,178.954147 
	C62.745323,178.379532 64.905678,177.103378 64.264191,173.626572 
	C57.934723,175.436142 50.106823,175.862076 47.740326,167.609558 
	C47.707607,167.305069 47.557190,167.078812 47.400742,166.167313 
	C47.416702,165.139099 47.432667,164.110886 47.822182,162.572159 
M77.535004,174.462875 
	C77.535004,174.462875 77.572266,174.599243 77.843987,175.200485 
	C84.524033,181.705215 92.815994,180.246216 96.279877,171.478836 
	C96.184471,169.653152 96.089058,167.827454 96.011696,165.370865 
	C95.687782,164.871368 95.363869,164.371857 94.893349,163.194138 
	C90.681381,158.674988 84.884918,157.481583 80.448387,160.220169 
	C42.124237,162.856552 170.515274,164.785690 171.198334,172.522034 
	C171.322525,172.859680 171.558441,173.074844 171.930878,173.057877 
M113.503998,159.158585 
	C113.140961,159.335373 113.036888,159.610229 113.017044,160.878784 
	C113.059998,163.916763 113.102951,166.954758 112.996971,170.719681 
	C111.323853,172.617645 109.650734,174.515594 107.977615,176.413559 
	C107.230339,176.207993 106.483070,176.002426 105.735794,175.796860 
	C105.107040,170.385834 104.478294,164.974808 103.818329,159.295166 
	C102.682396,159.295166 101.268791,159.295166 99.357567,159.295166 
	C99.357567,163.953049 98.803345,168.512848 99.584290,172.831207 
	C99.993355,175.093246 102.505608,178.333588 104.488434,178.672485 
	C108.751511,179.401138 113.286880,178.536789 118.384834,178.292191 
	C117.914513,171.906631 117.450287,165.603668 116.251892,159.099426 
	C115.495697,159.148575 114.739510,159.197708 113.503998,159.158585 
M167.308258,157.471970 
	C167.228790,156.312088 167.149323,155.152206 167.218643,153.495010 
	C167.173355,153.328003 167.128067,153.161011 167.098083,152.329147 
	C166.726624,152.166809 166.355179,152.004456 165.144775,151.665543 
	C161.211533,151.181412 162.034714,153.821548 162.093033,156.925522 
	C161.998230,164.236343 159.676407,165.497284 150.928864,163.430405 
	C150.264145,159.419418 149.635468,155.625854 148.244827,151.671570 
	C147.493927,151.802292 146.743011,151.933029 145.322128,152.562897 
	C145.322128,161.289810 145.322128,170.016724 145.322128,178.806183 
	C147.222092,178.806183 148.522186,178.806183 150.241470,178.806183 
	C150.241470,174.895096 150.241470,171.144791 150.241470,167.337555 
	C154.392593,167.337555 158.115875,167.337555 162.160614,167.337555 
	C162.160614,171.266556 162.160614,174.881287 162.160614,178.670532 
	C164.025742,178.670532 165.554810,178.670532 167.062912,178.670532 
	C167.062912,173.230301 167.062912,168.105118 167.251083,162.165649 
	C167.189468,160.780090 167.127838,159.394547 167.308258,157.471970 
z"/>
</svg>