<svg version="1.1" id="Layer_1" xmlns="http://www.w3.org/2000/svg" xmlns:xlink="http://www.w3.org/1999/xlink" x="0px" y="0px"
	 width="100%" viewBox="0 0 256 256" enable-background="new 0 0 256 256" xml:space="preserve">
<path fill="#F9F9F9" opacity="1.000000" stroke="none" 
	d="
M233.000000,257.000000 
	C229.307098,257.000000 225.614182,257.000000 221.386108,256.641541 
	C218.566452,253.868240 216.491684,251.196716 213.938705,249.110352 
	C211.362839,247.005280 210.325806,242.814331 205.988708,242.620331 
	C205.274811,241.524658 204.572189,240.808655 203.869553,240.092651 
	C203.246368,241.061768 202.623184,242.030884 201.602936,243.002228 
	C200.159210,243.556976 199.102158,244.090851 198.068420,244.666580 
	C196.702713,245.427216 195.355301,246.220673 193.998749,246.613037 
	C193.348145,245.222763 192.698792,244.219437 192.049438,243.216125 
	C191.366287,244.477417 190.683151,245.738708 189.618515,247.011719 
	C188.574997,247.989029 187.912979,248.954605 187.250961,249.920197 
	C187.758286,250.189011 188.265594,250.457840 188.772888,250.726669 
	C189.181931,249.484436 189.590958,248.242218 190.399994,247.000000 
	C191.866653,247.000000 192.933334,247.000000 193.998840,247.389221 
	C192.388306,250.067108 190.863525,252.427750 189.057999,254.549484 
	C188.842545,254.802689 186.781998,254.028397 186.117325,253.261688 
	C183.406647,250.134933 180.981049,246.759094 178.227127,243.674362 
	C177.907242,243.316040 175.857285,243.870850 175.189835,244.562469 
	C172.128677,247.734360 169.347290,251.177887 166.251495,254.312592 
	C165.868439,254.700500 164.047501,254.057190 163.186615,253.464828 
	C162.461304,252.965775 162.163132,251.845963 161.604324,250.876801 
	C159.439850,252.586700 158.362198,259.157654 155.512955,251.988678 
	C155.419922,251.754562 152.536270,251.970184 152.251556,252.581131 
	C150.677750,255.958099 149.515182,256.127777 147.837891,252.674408 
	C147.488205,251.954483 146.114319,251.731979 145.212433,251.280243 
	C142.849304,256.725006 140.705704,254.641708 138.405563,251.184143 
	C138.131256,250.771820 136.826904,251.044724 135.998749,250.609161 
	C135.451675,249.225494 134.905838,248.232681 134.360001,247.239868 
	C133.906662,248.493240 133.453339,249.746628 132.601959,251.002167 
	C131.208817,251.412140 129.594360,251.576050 129.321732,252.268372 
	C127.843246,256.022797 126.723167,256.390594 124.771957,252.493149 
	C123.622978,250.198105 122.218903,250.654663 120.892281,252.884491 
	C120.406517,253.700943 117.910805,254.406754 117.474129,253.983810 
	C115.315712,251.893265 113.539833,249.407745 111.435928,246.824387 
	C110.365372,248.340637 109.539871,249.634583 108.585892,250.825623 
	C107.645691,251.999496 106.755753,253.436340 105.498116,254.054245 
	C104.673210,254.459518 102.530075,253.959702 102.192467,253.270233 
	C100.753151,250.330841 99.488457,250.136948 98.010399,253.055908 
	C96.608330,255.824799 95.271431,255.896484 94.037743,253.057953 
	C92.784889,250.175323 91.442284,250.101913 90.064972,252.832062 
	C88.600174,255.735626 87.466583,255.761368 85.929405,252.849365 
	C84.911087,250.920303 83.447830,249.226120 82.183762,247.426773 
	C80.585770,248.587692 78.968307,249.723083 77.397629,250.919861 
	C76.556602,251.560684 75.497627,252.156509 75.054535,253.033981 
	C73.651413,255.812637 72.420303,255.857452 71.022362,253.107635 
	C69.547203,250.205963 68.287682,250.253311 66.909874,253.253296 
	C65.821449,255.623184 64.245644,255.643951 63.107159,253.315582 
	C61.402473,249.829300 60.356758,250.134384 58.775089,253.481842 
	C57.696663,255.764236 56.086456,255.536697 55.003620,253.102234 
	C54.667732,252.347061 54.038727,251.722290 53.599991,251.115387 
	C51.388863,251.757751 51.619225,258.236115 48.207378,253.294983 
	C46.065834,250.193542 45.413559,250.067978 43.802105,253.440826 
	C42.697037,255.753754 41.146744,255.489899 40.012901,253.125336 
	C38.605862,250.191055 37.372604,250.285782 35.897205,253.231339 
	C34.552776,255.915375 33.063686,255.874969 31.963057,252.886337 
	C31.714506,252.211441 31.155680,251.650803 31.073957,251.530334 
	C29.051020,252.636459 26.732437,254.718353 25.843584,254.224899 
	C23.842916,253.114212 22.340992,250.863037 21.023031,248.825729 
	C19.361637,246.257523 18.233612,246.149551 16.984707,249.023758 
	C15.744429,251.878143 14.410633,251.844910 13.011048,249.089951 
	C11.535915,246.186264 10.716612,246.650070 8.777167,249.165085 
	C6.869905,251.638382 3.646095,253.096451 1.000000,255.000000 
	C1.000000,246.312439 1.000000,237.624863 1.398178,228.470612 
	C2.600168,228.145630 3.672260,228.006165 4.163811,228.475159 
	C7.134870,231.309784 10.187479,234.105896 12.799715,237.257309 
	C15.820547,240.901642 20.433615,232.923782 22.854187,238.896332 
	C23.595736,238.374527 24.279356,237.722366 25.092257,237.361099 
	C26.348400,236.802902 27.692944,236.443634 29.008614,236.367737 
	C29.630733,237.403473 30.244236,238.071457 30.857737,238.739456 
	C31.238466,237.826309 31.619194,236.913147 32.396111,236.001373 
	C36.197811,238.146317 39.597054,239.000183 43.029289,236.027374 
	C43.218716,235.863312 43.670486,236.002151 44.011345,236.379654 
	C44.725178,237.475235 45.427814,238.191177 46.130447,238.907135 
	C46.753628,237.938095 47.376812,236.969040 48.396278,235.997833 
	C49.821301,235.280319 50.850040,234.564987 51.878777,233.849640 
	C50.585850,233.233093 49.292927,232.616547 48.002029,231.601959 
	C48.566425,230.155258 48.872196,228.568329 49.737759,228.155685 
	C52.711613,226.738022 52.802662,225.538666 49.954395,223.985107 
	C49.395817,223.680435 48.550446,223.443863 48.371620,222.972992 
	C46.934860,219.189697 45.584396,218.177536 43.640388,222.730408 
	C43.419415,223.247940 41.079109,223.596344 40.538029,223.111649 
	C38.405075,221.201004 36.598053,218.926483 34.559528,216.664291 
	C32.501389,218.338120 30.126593,219.340118 29.403978,221.043182 
	C27.697186,225.065689 27.000751,225.131027 24.592249,221.374222 
	C23.332220,219.408813 20.034426,217.651596 17.769922,217.780762 
	C16.003237,217.881546 14.481263,221.112778 12.701387,222.795120 
	C12.108867,223.355179 10.345916,223.750046 10.311147,223.674103 
	C7.837609,218.272049 5.704868,220.365707 3.405185,223.816254 
	C3.130339,224.228653 1.826751,223.955429 1.000000,224.000000 
	C1.000000,220.638718 1.000000,217.277420 1.396357,213.459320 
	C2.452156,213.069107 3.402407,212.879532 3.723554,213.244110 
	C5.717129,215.507324 7.526556,217.737183 9.856979,213.506531 
	C10.006519,213.235062 12.290454,213.508438 12.698921,214.118896 
	C14.534557,216.862259 15.780604,216.564835 17.420616,213.939011 
	C17.726965,213.448517 20.233349,213.474564 20.618813,214.029800 
	C23.175676,217.712860 24.110212,215.708496 25.386654,212.986542 
	C26.365826,212.734070 27.314262,212.647400 27.494659,212.229324 
	C28.963509,208.825241 29.927933,206.767136 32.639439,211.765594 
	C33.220528,212.836807 36.789715,219.812210 40.889694,213.425858 
	C41.119339,213.068161 42.936741,213.101013 43.117691,213.436371 
	C45.350307,217.573822 47.149132,215.713898 49.179810,213.241959 
	C51.012993,211.010406 52.947655,208.821960 55.105293,206.917908 
	C55.920258,206.198730 58.074417,205.687363 58.611786,206.179688 
	C61.688492,208.998474 64.424393,212.185699 67.376785,215.147354 
	C67.860489,215.632599 69.364708,215.994339 69.520027,215.779358 
	C71.939430,212.430618 74.182503,212.764908 76.532112,215.824921 
	C76.693169,216.034683 77.518234,215.891388 77.950760,215.711227 
	C81.517120,214.225723 85.925728,207.370667 85.829430,204.147308 
	C87.089073,204.147308 88.362549,204.147308 89.636024,204.147308 
	C89.613510,203.355957 89.917854,202.268723 89.514008,201.822571 
	C87.334236,199.414566 85.266724,196.670547 82.550659,195.091064 
	C81.367737,194.403152 78.773361,196.461060 76.739975,196.826263 
	C74.750267,197.183640 74.159523,191.338821 71.120499,195.323486 
	C69.383499,197.600998 68.195526,197.907211 66.960548,194.956894 
	C65.757332,192.082489 64.623825,192.338135 62.926819,194.884979 
	C61.430828,197.130142 59.445225,199.334305 57.146000,200.573532 
	C56.511753,200.915359 53.955574,197.767975 52.339855,196.162613 
	C51.888844,195.714493 51.400711,194.540329 51.344730,194.567108 
	C47.757866,196.282715 44.207474,196.242950 40.647438,194.530624 
	C38.223591,199.683105 36.276375,195.234528 33.934155,193.673019 
	C32.769798,196.722641 25.118557,197.377731 31.723377,202.365723 
	C31.902203,202.500778 31.298742,204.374954 30.714817,204.621979 
	C30.112526,204.876770 28.981569,204.285141 28.271666,203.791138 
	C27.100769,202.976364 26.082518,201.942261 24.997921,200.602417 
	C23.219799,198.197998 21.530491,196.095184 19.550510,194.315796 
	C19.320011,194.108643 17.568413,196.018097 16.360430,196.340118 
	C15.397882,196.596725 14.061631,196.151215 13.122073,195.613846 
	C11.995522,194.969528 11.114003,193.896774 11.199364,193.973450 
	C7.287575,196.668365 4.143789,198.834183 1.000002,201.000000 
	C1.000000,185.312439 1.000000,169.624878 1.381628,153.469757 
	C2.808618,153.341705 4.398320,153.365143 4.809273,154.072968 
	C7.136543,158.081421 10.800787,158.394928 14.712055,157.966553 
	C17.900145,157.617371 21.041056,156.720856 24.230310,156.533279 
	C27.133442,156.362503 30.073483,156.819260 33.158112,157.305847 
	C34.240505,158.622986 35.162048,159.633682 35.418575,159.915039 
	C33.986916,162.463577 32.993610,164.231781 32.000153,166.000000 
	C32.000000,166.000000 31.999771,166.000000 31.613220,166.012512 
	C30.635006,166.264313 29.960476,166.393646 29.468075,166.764679 
	C28.262060,167.673447 27.140123,168.693802 25.984350,169.669235 
	C26.400543,168.317230 27.050772,166.984070 27.161545,165.607498 
	C27.256323,164.429688 27.134825,162.731018 26.394821,162.099258 
	C25.051456,160.952362 22.496862,159.320648 21.647848,159.842743 
	C18.687479,161.663208 16.146694,164.227356 13.694635,166.750076 
	C13.304589,167.151367 13.880900,169.072205 14.544770,169.809250 
	C16.568325,172.055862 19.134956,173.851349 20.957113,176.230682 
	C22.792135,178.626801 23.665226,178.776474 25.058235,175.974854 
	C26.522232,173.030457 27.994352,173.328079 29.110859,176.381165 
	C29.336515,176.998230 30.047136,177.437927 30.021404,177.410385 
	C32.045990,176.207504 33.582184,175.294785 35.118378,174.382080 
	C37.077251,179.442978 38.890427,178.502731 41.104439,174.443542 
	C41.541714,173.641830 43.531109,173.686691 44.819401,173.387466 
	C44.834087,173.433792 44.834385,173.530945 44.597866,173.913605 
	C42.564671,178.041870 47.005730,177.548462 47.925228,179.514343 
	C50.123257,184.213638 51.716133,182.405212 53.383057,178.881287 
	C54.507141,178.970428 55.254093,179.064865 56.012230,179.524109 
	C57.742863,182.006149 59.462311,184.123398 61.741817,186.930267 
	C63.475559,182.259232 65.202126,179.145782 67.719276,185.323563 
	C67.852371,185.650223 70.130249,185.654953 70.248459,185.353790 
	C72.389801,179.898071 74.087227,181.726303 75.891708,185.535675 
	C76.030365,185.828369 77.462494,185.966812 77.692368,185.685608 
	C79.604393,183.346710 81.375099,180.892288 83.536011,178.575745 
	C84.589371,178.838165 85.295227,178.997589 86.054169,179.507202 
	C88.243401,181.980392 90.379539,184.103409 91.879250,185.593903 
	C95.760040,182.353897 99.000198,179.648743 102.314209,176.977570 
	C102.388077,177.011551 102.495750,177.133392 102.358940,177.575592 
	C102.726601,179.296326 103.231071,180.574829 103.735550,181.853348 
	C104.489960,180.932098 105.244370,180.010864 106.373688,179.050415 
	C107.498367,179.058792 108.248146,179.106354 109.052063,179.504181 
	C111.264122,181.978699 113.422043,184.102966 115.565170,186.212677 
	C117.611053,183.985260 118.412529,178.048538 121.345055,184.821777 
	C121.688652,185.615387 123.695770,185.637482 124.136047,186.448929 
	C126.781509,191.324677 128.531616,187.658997 130.601807,185.965912 
	C133.588745,183.523117 131.118225,182.606201 129.503021,181.227097 
	C129.026276,180.820053 129.172211,179.683716 129.431061,178.887314 
	C130.885651,178.980530 131.941971,179.068008 133.009979,179.515839 
	C134.690460,181.672348 136.359268,183.468491 138.267685,185.522476 
	C140.722610,182.281219 142.928604,179.910660 144.676010,185.288071 
	C144.776672,185.597900 146.643570,185.805557 147.224625,185.398560 
	C148.927490,184.205688 150.941635,182.947952 151.802963,181.205917 
	C152.668823,179.454727 152.295731,177.090958 152.380371,174.585007 
	C152.360367,172.784149 152.425552,171.393890 152.848801,169.998505 
	C154.137924,168.976303 155.068970,167.959259 156.369019,166.846954 
	C157.491669,166.815903 158.245300,166.880112 159.040253,167.308380 
	C160.671463,168.447342 162.261353,169.222260 163.920792,170.394241 
	C163.942215,171.862015 163.894119,172.932693 163.458160,174.004547 
	C162.122421,174.936707 160.275787,176.592636 160.357117,176.693481 
	C162.860214,179.796829 165.490936,182.812546 168.379898,185.548264 
	C168.539261,185.699158 171.011078,183.216812 172.558853,182.189713 
	C173.152939,181.795502 174.173676,182.044235 175.001953,182.398163 
	C177.053757,184.829208 179.103592,186.862106 181.153442,188.895004 
	C182.952225,186.469406 187.618912,186.475647 187.373795,181.990738 
	C189.512024,180.648376 191.276443,179.315262 193.040863,177.982162 
	C193.413132,178.367813 193.785416,178.753464 194.157684,179.139114 
	C193.141632,180.625580 192.125580,182.112045 191.122955,183.578873 
	C196.097000,190.483475 197.763626,190.694122 200.981369,184.639618 
	C201.010681,184.411514 201.154022,183.974472 201.416122,183.744415 
	C202.805267,183.112503 204.830704,182.205872 204.929535,182.381775 
	C208.527496,188.785141 210.548019,181.563461 213.281769,181.242706 
	C214.830185,181.061035 216.330887,178.805756 217.466431,177.209396 
	C218.779221,175.363907 219.666870,173.216003 220.739105,171.199402 
	C219.408585,170.778259 218.078049,170.357132 216.670013,169.629623 
	C216.635986,168.906708 216.679474,168.490143 217.032410,167.898254 
	C218.561234,167.148422 219.780624,166.573914 221.250153,165.999695 
	C221.667068,166.000198 221.833847,166.000412 222.001755,166.396912 
	C222.383362,167.806213 222.464645,169.299881 223.193344,169.753464 
	C227.589691,172.490021 222.583710,173.436096 222.446609,175.138947 
	C222.279160,177.218338 224.586624,181.037262 224.127579,181.316605 
	C219.087479,184.383743 223.894012,185.760178 225.061310,187.496338 
	C227.170593,190.633469 228.250534,188.205338 229.728897,186.607727 
	C230.332870,185.955048 231.881271,186.176331 233.011200,186.379684 
	C233.725082,187.475357 234.427734,188.191330 235.130402,188.907318 
	C235.753601,187.938217 236.376801,186.969116 237.396271,185.997803 
	C238.821243,185.280197 239.849976,184.564819 240.878693,183.849426 
	C239.585800,183.232956 238.292892,182.616486 237.002014,181.601959 
	C237.411774,180.208786 237.575577,178.594360 238.267883,178.321671 
	C242.021545,176.843079 242.441330,175.625214 238.520340,173.712952 
	C238.039215,173.478302 238.072098,170.492767 238.538162,170.284500 
	C241.914932,168.775543 241.942459,167.929947 238.764969,165.789825 
	C236.394302,164.193115 234.889679,161.310547 232.999619,158.750305 
	C232.999893,158.333130 232.999954,158.166260 233.397278,157.998260 
	C236.880280,155.922241 239.966003,153.847336 242.925903,151.857025 
	C243.886917,152.626740 246.081528,154.865662 246.448074,154.598312 
	C248.496323,153.104309 251.434738,151.036728 251.481888,149.102081 
	C251.528244,147.200012 248.682281,144.950562 246.648834,143.488800 
	C246.196777,143.163818 243.833572,145.497421 242.528442,146.473694 
	C241.015320,145.219223 239.202393,144.041794 237.815399,142.484909 
	C236.031525,140.482513 234.589355,138.175690 233.000000,135.750000 
	C233.000000,135.500000 233.000000,135.000000 233.397293,134.998703 
	C236.181152,133.400940 238.626511,131.884796 240.941559,130.190613 
	C245.235443,127.048286 242.910828,123.920906 240.632614,121.022858 
	C239.709869,119.849060 238.201538,119.152817 237.044937,118.141747 
	C235.199371,116.528351 233.615936,114.465042 231.515152,113.376480 
	C230.797073,113.004387 228.806793,114.925858 227.491318,115.922836 
	C226.552002,116.634720 225.814850,117.607597 224.906830,118.367653 
	C222.628983,120.274376 220.305313,122.126373 217.723297,123.739494 
	C217.106293,121.566887 216.350113,119.615692 216.526596,117.752861 
	C216.769821,115.185547 217.005112,112.985847 214.008804,111.625351 
	C216.345490,109.167747 218.672745,107.083878 221.007172,105.382416 
	C223.860367,112.071419 229.209412,113.161812 232.628571,107.676796 
	C234.703476,104.348282 235.378815,103.558792 237.277283,107.495438 
	C237.557800,108.077118 240.105270,108.422768 240.592682,107.912216 
	C244.587036,103.728279 243.957489,100.422157 238.823715,96.947327 
	C238.187378,96.516617 237.543106,96.002586 237.109406,95.382462 
	C233.380005,90.050156 230.697952,89.186485 226.403275,93.434311 
	C224.815338,95.004951 220.069595,97.427376 222.987274,100.508476 
	C227.104996,104.856812 224.804306,104.898849 220.998779,104.608742 
	C219.843674,102.261353 219.027298,99.956940 217.454315,98.433975 
	C215.266617,96.315826 212.511978,94.783234 210.000000,92.625031 
	C209.999893,91.500145 209.999802,90.750221 210.268204,89.720238 
	C212.123108,89.161491 213.709518,88.882805 215.955444,88.488258 
	C216.297928,85.047272 216.648666,81.523384 216.998322,77.603058 
	C216.773697,76.299034 216.696335,75.319023 216.291290,74.501335 
	C215.728683,73.365585 214.920273,72.351601 214.217102,71.285477 
	C215.478058,70.856979 216.739029,70.428482 218.000977,70.388962 
	C219.001297,71.851959 220.000641,72.925980 221.007263,74.383286 
	C223.236710,77.233093 225.291061,79.887215 227.750931,82.088081 
	C229.007141,83.211990 231.233322,84.372940 232.584091,83.987152 
	C234.285141,83.501289 235.554352,81.466522 236.979858,80.069389 
	C237.632690,79.429565 238.087631,78.469322 238.849716,78.080536 
	C241.758636,76.596481 241.779556,75.334099 238.810120,73.948235 
	C236.435287,72.839867 236.544266,71.663834 238.533661,70.030899 
	C239.459579,69.270912 239.790161,67.785591 240.390594,66.629059 
	C237.354034,67.524376 236.857788,60.413460 233.357361,64.100372 
	C231.212799,66.359177 230.348038,66.671143 228.606491,64.031830 
	C228.295090,63.559887 225.483109,63.835743 225.244080,64.384346 
	C224.471207,66.158028 219.817352,66.797234 222.906525,69.594315 
	C227.383179,73.647690 224.771515,73.898560 220.999023,73.611038 
	C219.998703,72.148048 218.999344,71.074028 217.999725,69.600006 
	C217.999619,68.133339 217.999817,67.066673 218.367996,65.991074 
	C219.396637,65.340637 220.057281,64.699127 220.717926,64.057617 
	C220.220520,63.785896 219.723099,63.514179 219.225677,63.242462 
	C218.817108,64.161636 218.408554,65.080818 217.603027,65.998337 
	C214.047440,66.340874 213.853577,64.306839 214.403839,61.990952 
	C217.306686,61.861893 219.851730,61.979641 222.282913,61.509075 
	C223.311920,61.309910 224.101562,59.874062 225.397583,58.998047 
	C226.715347,58.737686 228.277451,58.702774 228.456726,58.187080 
	C230.330917,52.796432 232.035263,54.908772 233.930222,58.134132 
	C234.191696,58.579189 235.025970,58.687717 235.914871,59.100594 
	C237.654938,54.971050 239.456909,52.866978 241.940216,58.590874 
	C242.596115,60.102669 244.892303,60.902821 246.321320,61.946499 
	C250.306229,59.922962 251.525299,54.212242 257.000000,55.000000 
	C257.000000,109.687561 257.000000,164.375122 256.589294,219.531647 
	C254.763535,219.453888 253.349991,218.903229 251.932907,218.361847 
	C250.965897,217.992416 249.212112,217.202118 249.137543,217.336502 
	C246.709610,221.712463 244.427551,219.641724 242.265366,216.789963 
	C241.420990,217.962875 240.709793,219.476425 240.329208,219.397400 
	C236.850876,218.675247 233.408737,216.694717 230.056976,219.734955 
	C227.348557,214.320084 225.024948,219.103012 222.707169,220.123566 
	C220.321991,221.173767 220.542404,222.510300 222.648422,223.999725 
	C223.585876,224.662720 224.024811,226.030563 224.690018,227.078491 
	C219.595779,229.613022 223.682526,231.606567 224.936783,234.006958 
	C226.408020,236.822632 227.580902,236.851364 228.949554,234.149567 
	C230.423965,231.239044 231.411880,231.385895 233.111221,234.171204 
	C236.091537,239.056152 243.637589,239.451126 248.921265,236.631393 
	C251.661423,235.169067 252.508636,230.191299 257.000000,232.000000 
	C257.000000,238.021149 257.000000,244.042297 256.583923,250.532654 
	C255.682739,251.006027 255.047668,250.812515 254.737793,251.047607 
	C253.138702,252.260895 251.559479,254.673386 250.094376,254.588089 
	C248.332611,254.485519 246.692673,252.290390 244.750458,251.000549 
	C244.500916,250.999893 244.001816,250.998169 244.001526,250.598358 
	C244.000610,249.132370 244.000000,248.066177 244.386444,246.998718 
	C245.777222,246.348145 246.780960,245.698853 247.784683,245.049561 
	C246.523117,244.366379 245.261566,243.683182 243.991196,242.631989 
	C243.340866,241.603271 242.699356,240.942551 242.057846,240.281830 
	C241.786087,240.779221 241.514328,241.276627 241.242554,241.774017 
	C242.161697,242.182678 243.080856,242.591339 244.000244,243.400055 
	C244.000336,244.866928 244.000168,245.933777 243.613174,247.013046 
	C239.817566,250.350327 236.408783,253.675156 233.000000,257.000000 
M189.982849,219.264496 
	C189.369324,218.596497 188.755798,217.928482 188.142288,217.260468 
	C187.761520,218.173645 187.380768,219.086823 186.207275,219.997314 
	C183.262161,219.598297 180.378998,214.768784 177.309982,219.866058 
	C177.210464,220.031357 176.066818,219.916779 175.938828,219.664429 
	C173.591339,215.035477 171.639954,217.801178 169.473587,219.869156 
	C167.495499,221.757416 165.042419,223.209198 163.321747,225.286606 
	C161.954178,226.937683 160.064682,229.996414 160.704575,231.110443 
	C162.342300,233.961716 165.243225,238.005585 167.672760,238.028748 
	C171.207870,238.062469 174.646347,237.663971 178.364334,238.155640 
	C180.708359,238.465652 183.492264,235.449203 186.078842,233.924911 
	C185.578964,233.264359 185.079086,232.603790 184.579193,231.943237 
	C185.932083,232.954178 187.284988,233.965103 188.817581,235.110321 
	C190.834808,232.853409 192.548340,230.639297 194.621704,228.839798 
	C195.099182,228.425385 197.425293,229.091370 197.845306,229.846893 
	C199.435699,232.707687 200.539688,232.738785 202.091202,229.872910 
	C202.558838,229.009079 204.106857,228.669739 204.442276,227.810120 
	C204.859833,226.739990 204.891144,225.222000 204.434082,224.186615 
	C203.918900,223.019592 202.764954,222.060394 201.715195,221.230377 
	C201.050232,220.704590 199.361588,220.251846 199.329193,220.321686 
	C196.858368,225.647812 194.714706,223.691589 192.407791,220.184814 
	C192.137085,219.773315 190.827820,220.045013 189.982849,219.264496 
M175.022415,213.759338 
	C175.725082,214.475266 176.427765,215.191177 177.130463,215.907104 
	C177.753647,214.938065 178.376831,213.969040 179.777817,213.002167 
	C181.510498,213.907364 183.243164,214.812576 185.388321,215.933258 
	C186.846680,214.246887 188.556610,212.507690 189.979828,210.559113 
	C191.502365,208.474548 192.224915,208.971359 194.057800,210.556793 
	C196.409317,212.590851 197.928513,219.405640 203.017288,213.330856 
	C203.290543,213.004669 204.714783,213.032639 204.852493,213.292953 
	C207.634338,218.550598 210.120209,214.204666 212.219894,212.823837 
	C214.086426,211.596329 215.632034,209.556686 216.640076,207.536575 
	C216.961395,206.892654 215.144974,205.134323 214.239838,203.936447 
	C212.582275,201.742752 211.122452,199.311737 209.110947,197.500900 
	C207.468475,196.022308 204.985168,194.260132 203.162643,194.534729 
	C201.263626,194.820892 199.391800,197.171768 198.080795,199.025009 
	C196.214432,201.663345 195.119019,201.779297 193.917450,198.687515 
	C193.668961,198.048080 193.016724,197.565552 192.413406,196.847473 
	C190.446701,199.011383 188.360794,200.675095 187.120590,202.826355 
	C185.465454,205.697372 184.482880,205.711090 182.916489,202.898834 
	C182.435135,202.034607 181.279724,201.562317 180.483246,200.854019 
	C177.969925,198.619003 175.476791,194.595261 172.982773,194.600418 
	C170.480331,194.605606 168.262558,199.093445 165.414932,200.746796 
	C162.217041,202.603516 161.852081,203.509506 165.344864,205.139313 
	C166.088272,205.486221 166.373428,206.711731 167.082733,207.253677 
	C169.673080,209.232910 172.353500,211.094254 175.022415,213.759338 
M135.948410,206.656662 
	C137.601318,208.645294 139.156158,210.735916 141.008820,212.516754 
	C141.299332,212.796021 143.195236,211.909866 143.916763,211.151520 
	C147.686508,207.189438 151.316803,203.094666 155.092758,198.939133 
	C152.676941,199.298019 152.915497,190.007431 147.085922,196.534592 
	C146.818207,196.834351 144.943542,195.979462 144.035309,195.348557 
	C143.107651,194.704193 142.448990,193.672592 141.993317,193.166656 
	C139.906815,194.878036 138.379440,196.085541 136.902039,197.351379 
	C132.986252,200.706390 132.621414,203.422409 135.948410,206.656662 
M131.903381,207.363235 
	C127.894684,202.599533 123.885994,197.835831 119.416077,192.524033 
	C116.745277,195.451935 114.168549,198.046951 111.903008,200.889969 
	C111.150864,201.833817 110.502388,203.901138 111.003563,204.618225 
	C112.920799,207.361465 115.272011,209.815018 117.595512,212.248489 
	C118.029335,212.702866 119.693253,212.823135 119.759186,212.665802 
	C121.541512,208.413086 123.694672,208.212433 126.520309,211.773392 
	C126.653572,211.941345 128.164383,211.209076 128.873672,210.681107 
	C129.895004,209.920883 130.769470,208.963394 131.903381,207.363235 
M231.343216,196.948334 
	C229.356369,198.595673 227.276169,200.149719 225.459671,201.967316 
	C225.086487,202.340744 225.387299,203.987381 225.910995,204.554352 
	C228.265594,207.103470 230.717178,209.586929 233.355606,211.833557 
	C234.033722,212.410980 236.400742,212.352783 236.504623,212.059570 
	C239.089523,204.764862 240.412201,211.428757 241.919693,212.429871 
	C243.785553,211.064774 245.661758,209.948563 247.159912,208.453522 
	C247.667664,207.946808 247.636734,206.160080 247.135590,205.513504 
	C245.186569,202.998871 242.788177,200.830750 240.857254,198.304230 
	C237.849686,194.368958 234.544785,193.658554 231.343216,196.948334 
M144.340240,220.867905 
	C141.723572,223.800415 139.106903,226.732941 136.159225,230.036423 
	C137.218063,231.024643 138.594086,232.243561 139.893784,233.539047 
	C141.401627,235.041962 142.760529,236.701889 144.329712,238.134079 
	C147.431625,240.965225 147.821075,236.538391 149.716446,235.966125 
	C152.892731,235.007126 152.784927,233.439804 149.903961,231.983597 
	C147.148270,230.590714 147.188782,229.375443 149.946030,227.945908 
	C150.765198,227.521225 151.219727,226.393234 151.841309,225.587479 
	C149.522110,223.837387 147.202911,222.087296 144.340240,220.867905 
M65.373116,228.075073 
	C65.787834,228.329300 66.448090,228.493744 66.578972,228.851730 
	C67.780228,232.137512 68.804253,234.120438 71.279541,229.451859 
	C72.378983,227.378250 74.707893,225.982040 76.342857,224.156647 
	C77.227554,223.168945 77.826294,221.925095 78.554047,220.796799 
	C75.508362,221.591339 75.208267,214.556412 71.117714,218.217789 
	C68.730247,220.354797 66.110641,222.251312 63.894310,224.544815 
	C63.447174,225.007507 64.345573,226.770447 65.373116,228.075073 
M192.502686,236.185242 
	C192.136093,236.866409 191.769501,237.547577 191.402924,238.228745 
	C191.963333,238.377777 192.523758,238.526794 193.084167,238.675812 
	C193.113602,237.898163 193.143036,237.120499 192.502686,236.185242 
M245.830750,213.343002 
	C245.857773,214.120621 245.884796,214.898239 245.911804,215.675842 
	C246.472717,215.528259 247.033630,215.380661 247.594543,215.233093 
	C247.230255,214.550964 246.865967,213.868820 245.830750,213.343002 
z"/>
</svg>